<svg xmlns="http://www.w3.org/2000/svg" xmlns:xlink="http://www.w3.org/1999/xlink" width="120" height="120" viewBox="0 0 120 120">
  <defs>
    <clipPath id="clip-path">
      <rect id="사각형_9" data-name="사각형 9" width="66.667" height="32.796" fill="none"/>
    </clipPath>
  </defs>
  <g id="그룹_140" data-name="그룹 140" transform="translate(-19.063 -219.063)">
    <g id="타원_8" data-name="타원 8" transform="translate(19.063 219.063)" fill="#fff" stroke="#555" stroke-width="1">
      <circle cx="60" cy="60" r="60" stroke="none"/>
      <circle cx="60" cy="60" r="59.5" fill="none"/>
    </g>
    <g id="그룹_25" data-name="그룹 25" transform="translate(45.918 262.955)">
      <g id="그룹_23" data-name="그룹 23" clip-path="url(#clip-path)">
        <path id="패스_18" data-name="패스 18" d="M89.977,201.92a.6.6,0,0,0,.6.6h9.393a.6.6,0,1,0,0-1.206H90.58a.6.6,0,0,0-.6.6" transform="translate(-84.978 -190.133)" fill="#a8cc06"/>
        <path id="패스_19" data-name="패스 19" d="M58.363,135.418H64a.6.6,0,0,0,0-1.206H58.363a.6.6,0,1,0,0,1.206" transform="translate(-54.551 -126.756)" fill="#a8cc06"/>
        <path id="패스_20" data-name="패스 20" d="M79.927,335.9H68.521a.6.6,0,1,0,0,1.206H79.927a.6.6,0,0,0,0-1.206" transform="translate(-64.145 -317.235)" fill="#a8cc06"/>
        <path id="패스_21" data-name="패스 21" d="M10.2,403H.6a.6.6,0,1,0,0,1.206h9.6a.84.84,0,0,1,.287.06.6.6,0,0,0,1.205-.031,1.116,1.116,0,0,0-.332-.811A1.758,1.758,0,0,0,10.2,403" transform="translate(0 -380.612)" fill="#a8cc06"/>
        <path id="패스_22" data-name="패스 22" d="M189.494,453.838a.6.6,0,0,0-.6.6v6.376a.6.6,0,1,0,1.206,0v-6.376a.6.6,0,0,0-.6-.6" transform="translate(-178.397 -428.625)" fill="#a8cc06"/>
        <path id="패스_23" data-name="패스 23" d="M126.262,67.105h-3.83a.6.6,0,0,0,0,1.206h3.83a.6.6,0,0,0,0-1.206" transform="translate(-115.061 -63.377)" fill="#00a47d"/>
        <path id="패스_24" data-name="패스 24" d="M23.342,268.423H15a.6.6,0,0,0,0,1.206h8.344a.6.6,0,0,0,0-1.206" transform="translate(-13.595 -253.511)" fill="#00a47d"/>
        <path id="패스_25" data-name="패스 25" d="M236.477,269.026a.6.6,0,0,0-.6-.6h-.257a.6.6,0,1,0,0,1.206h.257a.6.6,0,0,0,.6-.6" transform="translate(-221.958 -253.511)" fill="#00a47d"/>
        <path id="패스_26" data-name="패스 26" d="M257.927,403H256.2a.6.6,0,1,0,0,1.206h1.73a.6.6,0,1,0,0-1.206" transform="translate(-241.394 -380.612)" fill="#00a47d"/>
        <path id="패스_27" data-name="패스 27" d="M131.809,1.206h.257a.6.6,0,1,0,0-1.206h-.257a.6.6,0,0,0,0,1.206" transform="translate(-123.917 0)" fill="#00a47d"/>
        <path id="패스_28" data-name="패스 28" d="M1049.779,409.495a.836.836,0,0,0-.312.062,7.2,7.2,0,0,1-3.1.853c-2.227,0-2.872-1.29-3.017-2.372a5.176,5.176,0,0,1-.083-1.141,18.346,18.346,0,0,1,.083-2.018c.146-1.082.79-2.372,3.017-2.372,2.206,0,2.851,1.29,3,2.372,0,.1.021.208.021.291a1.018,1.018,0,0,1-.25.749.741.741,0,0,1-.583.208h-3.68a.6.6,0,1,0,0,1.207h3.68a2.165,2.165,0,0,0,1.581-.6,2.224,2.224,0,0,0,.583-1.561,3.1,3.1,0,0,0-.042-.437c-.291-2.143-1.914-3.434-4.307-3.434-2.414,0-4.037,1.29-4.328,3.434a16.324,16.324,0,0,0-.1,2.164,5.288,5.288,0,0,0,.1,1.286c.291,2.143,1.914,3.433,4.328,3.433a8.563,8.563,0,0,0,3.725-.936.614.614,0,0,0,.354-.562.592.592,0,0,0-.083-.312.72.72,0,0,0-.583-.312" transform="translate(-984.049 -379.006)" fill="#00a47d"/>
        <path id="패스_29" data-name="패스 29" d="M492.223,350.274a.644.644,0,0,0-.27.062,3.628,3.628,0,0,1-1.5.291,3.119,3.119,0,0,1-2.247-.749c-.541-.541-.749-1.311-.749-2.934V338.6a.669.669,0,0,0-1.332,0v8.34c0,1.665.187,2.851,1.124,3.766a4.424,4.424,0,0,0,3.2,1.124,5.349,5.349,0,0,0,2.06-.374.634.634,0,0,0,.375-.562.576.576,0,0,0-.062-.271.692.692,0,0,0-.6-.354" transform="translate(-459.119 -319.223)" fill="#00a47d"/>
        <path id="패스_30" data-name="패스 30" d="M528.013,405.13h3.118a.606.606,0,1,0,0-1.207h-3.118a.6.6,0,1,0,0,1.207" transform="translate(-498.09 -381.483)" fill="#00a47d"/>
        <path id="패스_31" data-name="패스 31" d="M665.079,401.677a5.6,5.6,0,0,0-2.1-.374c-2.289,0-3.912,1.124-4.245,3.433a8.377,8.377,0,0,0-.1,1.6v4.6a.669.669,0,0,0,1.332,0v-4.451c0-2.289.042-3.973,3.017-3.973a5.209,5.209,0,0,1,1.582.312.575.575,0,0,0,.27.062.663.663,0,0,0,.666-.624.626.626,0,0,0-.416-.583" transform="translate(-622.038 -379.007)" fill="#00a47d"/>
        <path id="패스_32" data-name="패스 32" d="M825.391,406.128h-3.68a.6.6,0,1,0,0,1.207h3.68a2.167,2.167,0,0,0,1.582-.6,2.225,2.225,0,0,0,.583-1.561,3.132,3.132,0,0,0-.042-.437c-.291-2.143-1.914-3.434-4.307-3.434-2.414,0-4.037,1.29-4.328,3.434a16.376,16.376,0,0,0-.1,2.164,5.3,5.3,0,0,0,.1,1.286c.291,2.143,1.914,3.433,4.328,3.433a8.564,8.564,0,0,0,3.725-.936.613.613,0,0,0,.354-.562.588.588,0,0,0-.083-.312.72.72,0,0,0-.583-.312.835.835,0,0,0-.312.062,7.2,7.2,0,0,1-3.1.853c-2.226,0-2.872-1.29-3.017-2.372a5.175,5.175,0,0,1-.083-1.141,18.336,18.336,0,0,1,.083-2.018c.146-1.082.791-2.372,3.017-2.372,2.206,0,2.851,1.29,3,2.372,0,.1.021.208.021.291a1.018,1.018,0,0,1-.25.749.741.741,0,0,1-.583.208" transform="translate(-773.286 -379.006)" fill="#00a47d"/>
        <path id="패스_33" data-name="패스 33" d="M820.508,168.283a2.313,2.313,0,0,1-1.15-1.09,2.872,2.872,0,0,1-.3-.971,7.707,7.707,0,0,1-.083-1.371v-9.005a.669.669,0,0,0-1.332,0v9.005c0,.083,0,.16,0,.234h0a5.191,5.191,0,0,0,.065,1c.011.089.024.182.039.284.017.126.079.422.085.446.023.1.1.341.1.362.03.089.061.176.1.261.026.064.118.254.121.26a3.541,3.541,0,0,0,1.006,1.22,5.057,5.057,0,0,1,1.449-.592,1.123,1.123,0,0,1-.1-.045" transform="translate(-772.223 -146.618)" fill="#a8cc06"/>
        <path id="패스_34" data-name="패스 34" d="M864.3,243.228a7.636,7.636,0,0,0,.1-1.52,8.409,8.409,0,0,0-.1-1.612c-.291-2.164-1.915-3.475-4.307-3.475a8.483,8.483,0,0,0-1.765.187.522.522,0,0,0-.437.541.487.487,0,0,0,.042.229.568.568,0,0,0,.541.416.407.407,0,0,0,.146-.021,8.858,8.858,0,0,1,1.474-.146,2.659,2.659,0,0,1,3,2.414,8.938,8.938,0,0,1,.083,1.467,7.875,7.875,0,0,1-.083,1.375,2.48,2.48,0,0,1-1.489,2.083,5.078,5.078,0,0,1,1.45.569,3.777,3.777,0,0,0,1.35-2.506" transform="translate(-810.131 -223.474)" fill="#a8cc06"/>
        <path id="패스_35" data-name="패스 35" d="M1152.441,380.344a.614.614,0,0,0,.354-.562.588.588,0,0,0-.083-.312.719.719,0,0,0-.582-.312.83.83,0,0,0-.312.062,9.149,9.149,0,0,1-1.512.6,4.9,4.9,0,0,1,1.641.748q.247-.1.5-.225" transform="translate(-1086.398 -358.094)" fill="#a8cc06"/>
        <path id="패스_36" data-name="패스 36" d="M1043.349,238.39a5.176,5.176,0,0,1-.083-1.14,18.345,18.345,0,0,1,.083-2.018c.146-1.082.79-2.372,3.017-2.372,2.206,0,2.851,1.29,3,2.372,0,.1.021.208.021.291a1.018,1.018,0,0,1-.25.749.742.742,0,0,1-.583.208h-3.68a.6.6,0,1,0,0,1.207h3.68a2.165,2.165,0,0,0,1.581-.6,2.224,2.224,0,0,0,.583-1.561,3.094,3.094,0,0,0-.042-.437c-.291-2.143-1.914-3.434-4.307-3.434-2.414,0-4.037,1.29-4.328,3.434a16.323,16.323,0,0,0-.1,2.164,5.288,5.288,0,0,0,.1,1.286,3.764,3.764,0,0,0,1.381,2.53,5.075,5.075,0,0,1,1.429-.576,2.5,2.5,0,0,1-1.5-2.1" transform="translate(-984.049 -218.782)" fill="#a8cc06"/>
      </g>
    </g>
  </g>
</svg>
